<?xml version="1.0" encoding="UTF-8"?>
<svg id="Layer_2" xmlns="http://www.w3.org/2000/svg" version="1.1" viewBox="0 0 564 128">
  <!-- Generator: Adobe Illustrator 30.3.0, SVG Export Plug-In . SVG Version: 2.1.3 Build 182)  -->
  <polygon points="80 56 16 56 16 0 0 0 0 128 16 128 16 72 80 72 80 128 96 128 96 0 80 0 80 56"/>
  <polygon points="348 16 388 16 388 128 404 128 404 16 444 16 444 0 348 0 348 16"/>
  <polygon points="136 0 120 0 120 128 136 128 136 27 196 128 216 128 140 0 136 0"/>
  <polygon points="488 0 484 0 468 0 468 128 484 128 484 27 544 128 564 128 488 0"/>
  <path d="M280,0c-35.4,0-64,28.6-64,64s28.6,64,64,64,64-28.7,64-64S315.4,0,280,0ZM280,112c-26.5,0-48-21.5-48-48s21.5-48,48-48,48,21.5,48,48-21.5,48-48,48Z"/>
</svg>