<?xml version="1.0" encoding="UTF-8"?>
<svg id="Layer_2" xmlns="http://www.w3.org/2000/svg" version="1.1" viewBox="0 0 18.8 18.8">
  <!-- Generator: Adobe Illustrator 30.3.0, SVG Export Plug-In . SVG Version: 2.1.3 Build 182)  -->
  <path d="M16.4,7c0,2.8-1,3.6-6.3,11.3-.2.3-.4.4-.7.4s-.5-.1-.7-.4C3.3,10.7,2.3,9.9,2.3,7S5.5,0,9.4,0s7,3.1,7,7ZM11.1,13.8c3.2-4.5,3.5-5.1,3.5-6.8,0-2.9-2.4-5.3-5.3-5.3s-5.3,2.4-5.3,5.3.4,2.3,3.5,6.8c.5.7,1.1,1.5,1.7,2.5.6-.9,1.2-1.8,1.7-2.5ZM12.3,7c0,1.6-1.3,2.9-2.9,2.9s-2.9-1.3-2.9-2.9,1.3-2.9,2.9-2.9,2.9,1.3,2.9,2.9ZM10.5,7c0-.6-.5-1.2-1.2-1.2s-1.2.5-1.2,1.2.5,1.2,1.2,1.2,1.2-.5,1.2-1.2Z"/>
</svg>