<?xml version="1.0" encoding="UTF-8"?>
<svg id="Layer_2" data-name="Layer 2" xmlns="http://www.w3.org/2000/svg" width="18.75" height="18.75" viewBox="0 0 18.75 18.75">
  <g id="Layer_1-2" data-name="Layer 1">
    <path d="M18.75,9.375c0,5.178-4.197,9.375-9.375,9.375S0,14.553,0,9.375,4.197,0,9.375,0s9.375,4.197,9.375,9.375ZM1.875,9.375c0,.648.091,1.274.247,1.875h2.354c-.066-.606-.101-1.233-.101-1.875s.035-1.269.101-1.875h-2.354c-.155.601-.247,1.227-.247,1.875ZM2.89,5.625h1.904c.25-1.07.601-2.038,1.034-2.855-1.225.66-2.241,1.654-2.938,2.855ZM5.828,15.98c-.433-.817-.785-1.785-1.034-2.855h-1.904c.698,1.201,1.714,2.195,2.938,2.855ZM12.376,7.5h-6.002c-.073.593-.124,1.211-.124,1.875s.051,1.282.124,1.875h6.002c.073-.593.124-1.211.124-1.875s-.051-1.282-.124-1.875ZM12.003,5.625c-.641-2.327-1.777-3.75-2.628-3.75s-1.987,1.423-2.628,3.75h5.257ZM12.003,13.125h-5.257c.641,2.327,1.777,3.75,2.628,3.75s1.987-1.423,2.628-3.75ZM12.922,2.77c.433.817.785,1.785,1.034,2.855h1.904c-.698-1.201-1.714-2.195-2.938-2.855ZM15.86,13.125h-1.904c-.25,1.07-.601,2.038-1.034,2.855,1.225-.66,2.241-1.654,2.938-2.855ZM16.875,9.375c0-.648-.091-1.274-.247-1.875h-2.354c.066.606.101,1.233.101,1.875s-.035,1.269-.101,1.875h2.354c.155-.601.247-1.227.247-1.875Z"/>
  </g>
</svg>