<?xml version="1.0" encoding="UTF-8"?>
<svg id="Layer_2" data-name="Layer 2" xmlns="http://www.w3.org/2000/svg" width="20" height="20" viewBox="0 0 20 20">
  <g id="Layer_1-2" data-name="Layer 1">
    <path d="M19.947,14.849l-.823,3.568c-.213.931-1.033,1.583-1.992,1.583C7.686,20,0,12.314,0,2.867c0-.959.652-1.778,1.586-1.991L5.15.053c.958-.222,1.942.272,2.339,1.179l1.65,3.85c.354.833.113,1.813-.586,2.384l-1.311,1.074c1.006,1.748,2.471,3.213,4.221,4.219l1.072-1.309c.569-.706,1.554-.947,2.391-.584l3.836,1.644c.911.393,1.409,1.376,1.185,2.339ZM18.121,14.426c.018-.077-.026-.162-.099-.194l-3.838-1.645c-.068-.032-.149-.011-.192.044l-1.563,1.909c-.276.337-.749.439-1.139.248-2.628-1.291-4.786-3.447-6.076-6.074-.192-.391-.089-.862.248-1.138l1.906-1.562c.059-.048.078-.129.049-.198l-1.646-3.841c-.027-.061-.09-.102-.158-.102-.012,0-.025.001-.037.004l-3.568.823c-.08.019-.13.083-.13.164,0,8.414,6.844,15.258,15.257,15.258.083,0,.146-.05.165-.128l.823-3.571h0Z"/>
  </g>
</svg>