<?xml version="1.0" encoding="UTF-8"?>
<svg id="Layer_2" data-name="Layer 2" xmlns="http://www.w3.org/2000/svg" width="20" height="15" viewBox="0 0 20 15">
  <g id="Layer_1-2" data-name="Layer 1">
    <path d="M20,2.5v10c0,1.381-1.119,2.5-2.5,2.5H2.5c-1.381,0-2.5-1.119-2.5-2.5V2.5C0,1.119,1.119,0,2.5,0h15c1.381,0,2.5,1.119,2.5,2.5ZM1.875,2.5v.866l6.515,5.429c.903.752,2.316.753,3.222,0l6.514-5.429v-.866c0-.345-.28-.625-.625-.625H2.5c-.345,0-.625.28-.625.625ZM18.125,12.5v-6.693l-5.313,4.428c-.79.656-1.787,1.018-2.812,1.018s-2.021-.361-2.81-1.017L1.875,5.807v6.693c0,.345.28.625.625.625h15c.345,0,.625-.28.625-.625Z"/>
  </g>
</svg>